Patient4_TMGait_0pt6_01_right_18_GRF.mot
version=1
nRows=59
nColumns=19
inDegrees=no
endheader
time	F1x	F1y	F1z	M1x	M1y	M1z	F2x	F2y	F2z	M2x	M2y	M2z	EC1x	EC1y	EC1z	EC2x	EC2y	EC2z
21.3	-25.0678	804.2668	92.3236	-300.5214	-87.9547	732.6226	14.7683	-15.5478	-6.639	-2.2531	-2.9936	-20.7057	-0.0592	0.0182	-0.0073	-0.0462	0.0165	0.9585
21.312	-22.4473	793.2651	84.8302	-295.9694	-80.3084	716.9571	9.6668	-9.2228	-4.6536	-1.0457	-1.7716	-12.676	-0.0592	0.0182	-0.0073	-0.0462	0.0165	0.9585
21.324	-19.7174	779.4936	78.3598	-290.3577	-73.4361	698.8647	5.4187	-3.9185	-2.9266	-0.043747	-0.78714	-5.9627	-0.0592	0.0182	-0.0073	-0.0462	0.0165	0.9585
21.336	-16.9427	763.5393	73.1787	-283.9731	-67.6015	679.062	2.2179	0.12102	-1.5713	0.71904	-0.077563	-0.8617	-0.0592	0.0182	-0.0073	-0.0462	0.0165	0.9585
21.348	-14.1567	746.3077	69.327	-277.2056	-62.8779	658.386	0.030887	2.933	-0.61521	1.2539	0.39068	2.6817	-0.0592	0.0182	-0.0073	-0.0462	0.0165	0.9585
21.36	-11.3155	728.9177	66.5057	-270.519	-59.008	637.7176	-1.3002	4.6964	-0.0062015	1.5951	0.65966	4.8988	-0.0592	0.0182	-0.0073	-0.0462	0.0165	0.9585
21.372	-8.345	712.5914	64.4519	-264.392	-55.7659	617.9951	-1.9988	5.6305	0.32609	1.7781	0.79151	6.0778	-0.0592	0.0182	-0.0073	-0.0462	0.0165	0.9585
21.384	-5.1649	698.5631	62.8436	-259.2984	-52.8584	600.1161	-2.2601	5.9241	0.45732	1.8279	0.83699	6.4563	-0.0592	0.0182	-0.0073	-0.0462	0.0165	0.9585
21.396	-1.6866	687.998	61.4709	-255.6688	-50.081	584.9138	-2.2874	5.717	0.46586	1.7535	0.837	6.2459	-0.0592	0.0182	-0.0073	-0.0462	0.0165	0.9585
21.408	2.1588	681.8682	60.2073	-253.8491	-47.2949	573.0986	-2.187	5.0471	0.40582	1.54	0.81704	5.5224	-0.0592	0.0182	-0.0073	-0.0462	0.0165	0.9585
21.42	6.4045	680.7518	58.993	-254.0261	-44.4215	565.0875	-2.07	3.927	0.32362	1.1658	0.79546	4.3438	-0.0592	0.0182	-0.0073	-0.0462	0.0165	0.9585
21.432	11.0057	684.6572	57.8952	-256.1606	-41.5148	560.901	-1.9509	2.277	0.2476	0.59051	0.76739	2.6304	-0.0592	0.0182	-0.0073	-0.0462	0.0165	0.9585
21.444	15.9184	692.954	56.9423	-259.969	-38.5942	560.0649	-1.8542	0.063451	0.19848	-0.20974	0.72577	0.38193	-0.0592	0.0182	-0.0073	-0.0462	0.0165	0.9585
21.456	21.0153	704.4479	56.2561	-264.9496	-35.7907	561.7125	-1.7082	-2.7401	0.18576	-1.2431	0.64166	-2.4379	-0.0592	0.0182	-0.0073	-0.0462	0.0165	0.9585
21.468	26.1809	717.5776	55.8319	-270.4682	-33.1228	564.7077	-1.4834	-5.9794	0.22087	-2.4518	0.48958	-5.6474	-0.0592	0.0182	-0.0073	-0.0462	0.0165	0.9585
21.48	31.2581	730.6231	55.7357	-275.8303	-30.6959	567.8616	-1.0444	-9.2906	0.30701	-3.6923	0.22385	-8.905	-0.0592	0.0182	-0.0073	-0.0462	0.0165	0.9585
21.492	36.0938	741.8971	55.9109	-280.3592	-28.5148	570.0088	-0.31386	-11.9052	0.45431	-4.6719	-0.19941	-11.4504	-0.0592	0.0182	-0.0073	-0.0462	0.0165	0.9585
21.504	40.5173	749.9208	56.3811	-283.4605	-26.6745	570.1765	0.85661	-12.6236	0.64616	-4.9265	-0.81709	-12.1466	-0.0592	0.0182	-0.0073	-0.0462	0.0165	0.9585
21.516	44.3926	753.6067	57.0646	-284.7058	-25.1747	567.6773	2.5354	-9.6402	0.86191	-3.7645	-1.6385	-9.2214	-0.0592	0.0182	-0.0073	-0.0462	0.0165	0.9585
21.528	47.5771	752.3476	57.8979	-283.8693	-24.0481	562.1735	4.7739	-0.62648	1.046	-0.28863	-2.6198	-0.44361	-0.0592	0.0182	-0.0073	-0.0462	0.0165	0.9585
21.54	50.0179	746.0104	58.7025	-280.9322	-23.2092	553.6428	7.4444	17.2385	1.1337	6.5776	-3.6434	16.9085	-0.0592	0.0182	-0.0073	-0.0462	0.0165	0.9585
21.552	51.729	734.6922	59.2761	-275.988	-22.53	542.173	10.251	46.8384	1.0146	17.936	-4.4795	45.587	-0.0592	0.0182	-0.0073	-0.0462	0.0165	0.9585
21.564	52.7922	718.458	59.3842	-269.1356	-21.8303	527.7716	12.5446	90.5052	0.55313	34.6703	-4.7544	87.841	-0.0592	0.0182	-0.0073	-0.0462	0.0165	0.9585
21.576	53.3195	697.082	58.7831	-260.3779	-20.9032	510.1818	13.2925	148.8727	-0.43433	57.0112	-3.9086	144.2547	-0.0592	0.0182	-0.0073	-0.0462	0.0165	0.9585
21.588	53.3649	670.0049	57.2411	-249.5864	-19.5686	488.9148	11.0445	219.3827	-2.137	83.962	-1.2343	212.3419	-0.0592	0.0182	-0.0073	-0.0462	0.0165	0.9585
21.6	52.8614	636.4021	54.5709	-236.5243	-17.7126	463.2743	4.8817	295.2116	-4.7584	112.8811	3.7724	285.496	-0.0592	0.0182	-0.0073	-0.0462	0.0165	0.9585
21.612	51.6211	595.5938	50.7722	-220.9791	-15.412	432.7326	-4.1979	366.888	-8.9853	140.0934	11.3547	354.4512	-0.0592	0.0182	-0.0073	-0.0462	0.0165	0.9585
21.624	49.4297	547.4468	46.0337	-202.9077	-12.8777	397.1376	-14.5245	428.2325	-15.1558	163.1959	21.1419	413.0393	-0.0592	0.0182	-0.0073	-0.0462	0.0165	0.9585
21.636	46.0856	492.7036	40.7189	-182.5382	-10.4277	357.0385	-24.3053	478.5616	-22.1754	181.9451	31.3966	460.3779	-0.0592	0.0182	-0.0073	-0.0462	0.0165	0.9585
21.648	41.5891	432.6644	35.2485	-160.3048	-8.3463	313.3094	-32.0655	519.7252	-29.6312	197.091	41.1676	498.1342	-0.0592	0.0182	-0.0073	-0.0462	0.0165	0.9585
21.66	35.9532	369.3327	29.8844	-136.8919	-6.7943	267.4056	-37.2133	554.3514	-36.295	209.7293	49.069	528.8144	-0.0592	0.0182	-0.0073	-0.0462	0.0165	0.9585
21.672	29.3361	305.1551	24.8015	-113.1699	-5.8289	221.0162	-39.6941	584.6054	-41.9555	220.7317	54.9136	554.6081	-0.0592	0.0182	-0.0073	-0.0462	0.0165	0.9585
21.684	21.9934	242.9958	20.1005	-90.1682	-5.4113	176.2049	-39.8658	612.1316	-46.1465	230.7606	58.4297	577.204	-0.0592	0.0182	-0.0073	-0.0462	0.0165	0.9585
21.696	14.4929	185.6559	15.8944	-68.9162	-5.4034	134.905	-38.3009	637.9707	-49.3216	240.1918	60.3037	597.7872	-0.0592	0.0182	-0.0073	-0.0462	0.0165	0.9585
21.708	7.5166	135.4068	12.247	-50.2591	-5.5758	98.7407	-35.5995	662.6795	-51.658	249.2109	60.9652	617.062	-0.0592	0.0182	-0.0073	-0.0462	0.0165	0.9585
21.72	1.7665	93.4826	9.2014	-34.6785	-5.6941	68.5292	-32.4858	686.2146	-53.7113	257.7552	61.2267	635.2036	-0.0592	0.0182	-0.0073	-0.0462	0.0165	0.9585
21.732	-2.3816	60.2102	6.6868	-22.3086	-5.5617	44.519	-29.5708	708.2208	-55.7013	265.6665	61.5299	652.0128	-0.0592	0.0182	-0.0073	-0.0462	0.0165	0.9585
21.744	-4.7967	35.1031	4.6286	-12.9844	-5.0786	26.3334	-27.3152	728.3393	-57.8237	272.7843	62.2353	667.2784	-0.0592	0.0182	-0.0073	-0.0462	0.0165	0.9585
21.756	-5.6166	17.3043	2.9469	-6.3832	-4.2429	13.4059	-25.8765	746.1954	-59.9871	278.9854	63.3261	680.6521	-0.0592	0.0182	-0.0073	-0.0462	0.0165	0.9585
21.768	-5.2288	5.6812	1.6286	-2.0828	-3.196	4.9172	-25.2305	761.4942	-61.9691	284.1843	64.5861	691.8425	-0.0592	0.0182	-0.0073	-0.0462	0.0165	0.9585
21.78	-4.2557	-0.988	0.68037	0.38122	-2.1744	0.024733	-25.1379	773.7826	-63.6242	288.2514	65.784	700.3517	-0.0592	0.0182	-0.0073	-0.0462	0.0165	0.9585
21.792	-3.0895	-4.0613	0.088936	1.5125	-1.3259	-2.2671	-25.3962	782.5663	-64.76	291.0405	66.6435	705.6647	-0.0592	0.0182	-0.0073	-0.0462	0.0165	0.9585
21.804	-1.9985	-4.7751	-0.24317	1.7689	-0.67934	-2.8213	-25.7043	787.5059	-65.3764	292.4563	67.0514	707.3829	-0.0592	0.0182	-0.0073	-0.0462	0.0165	0.9585
21.816	-1.1009	-4.1422	-0.35978	1.5244	-0.25452	-2.3987	-25.8425	788.593	-65.3778	292.519	66.8371	705.4474	-0.0592	0.0182	-0.0073	-0.0462	0.0165	0.9585
21.828	-0.43896	-2.8785	-0.36313	1.0444	0.0094891	-1.5156	-25.5972	786.0754	-64.8769	291.3387	66.0314	700.0034	-0.0592	0.0182	-0.0073	-0.0462	0.0165	0.9585
21.84	0.0051464	-1.4698	-0.28355	0.5092	0.13269	-0.53515	-24.8298	780.6271	-63.8393	289.1701	64.5557	691.6125	-0.0592	0.0182	-0.0073	-0.0462	0.0165	0.9585
21.852	0.27221	-0.18235	-0.19552	0.018199	0.18355	0.34494	-23.4491	773.1229	-62.4281	286.3401	62.5334	681.0094	-0.0592	0.0182	-0.0073	-0.0462	0.0165	0.9585
21.864	0.40023	0.85642	-0.099072	-0.37818	0.17084	1.0482	-21.4475	764.6353	-60.681	283.2416	59.9986	669.1468	-0.0592	0.0182	-0.0073	-0.0462	0.0165	0.9585
21.876	0.45753	1.6094	-0.031089	-0.66645	0.14373	1.5381	-18.8712	756.2185	-58.7928	280.2513	57.1536	656.9745	-0.0592	0.0182	-0.0073	-0.0462	0.0165	0.9585
21.888	0.44112	2.1225	0.029794	-0.86023	0.086331	1.8717	-15.8626	748.8242	-56.8223	277.7108	54.1012	645.3759	-0.0592	0.0182	-0.0073	-0.0462	0.0165	0.9585
21.9	0.4148	2.4369	0.070435	-0.98062	0.033772	2.0697	-12.5496	743.2343	-54.9278	275.8903	51.0322	635.0982	-0.0592	0.0182	-0.0073	-0.0462	0.0165	0.9585
21.912	0.35797	2.6172	0.10542	-1.0507	-0.023053	2.2124	-9.0764	739.9741	-53.189	274.9647	48.0565	626.6554	-0.0592	0.0182	-0.0073	-0.0462	0.0165	0.9585
21.924	0.31067	2.699	0.12572	-1.0878	-0.062364	2.2894	-5.5767	739.2373	-51.727	274.9821	45.3183	620.2802	-0.0592	0.0182	-0.0073	-0.0462	0.0165	0.9585
21.936	0.23953	2.7312	0.1366	-1.1061	-0.092867	2.3662	-2.1391	740.8916	-50.6157	275.8693	42.8998	615.9261	-0.0592	0.0182	-0.0073	-0.0462	0.0165	0.9585
21.948	0.18846	2.7241	0.14238	-1.1103	-0.11	2.4123	1.1515	744.5135	-49.9055	277.444	40.8592	613.3065	-0.0592	0.0182	-0.0073	-0.0462	0.0165	0.9585
21.96	0.097818	2.6838	0.14621	-1.0971	-0.13585	2.4468	4.2311	749.4485	-49.618	279.4393	39.2221	611.9476	-0.0592	0.0182	-0.0073	-0.0462	0.0165	0.9585
21.972	0.018302	2.5682	0.15392	-1.049	-0.1715	2.3855	7.0406	754.9469	-49.7169	281.5513	37.9651	611.3112	-0.0592	0.0182	-0.0073	-0.0462	0.0165	0.9585
21.984	-0.11349	2.3363	0.16461	-0.94447	-0.23347	2.2105	9.5354	760.2379	-50.1508	283.4732	37.0571	610.8388	-0.0592	0.0182	-0.0073	-0.0462	0.0165	0.9585
21.996	-0.25267	1.8891	0.1853	-0.74853	-0.31812	1.7853	11.6759	764.6434	-50.8015	284.9372	36.4132	610.0384	-0.0592	0.0182	-0.0073	-0.0462	0.0165	0.9585
